<?xml version="1.0" standalone="no"?>
<!DOCTYPE svg PUBLIC "-//W3C//DTD SVG 20010904//EN"
 "http://www.w3.org/TR/2001/REC-SVG-20010904/DTD/svg10.dtd">
<svg version="1.0" xmlns="http://www.w3.org/2000/svg"
 width="436.000000pt" height="683.000000pt" viewBox="0 0 436.000000 683.000000"
 preserveAspectRatio="xMidYMid meet">

<g transform="translate(0.000000,683.000000) scale(0.100000,-0.100000)"
fill="#000000" stroke="none">
<path d="M1820 5601 c0 -12 6 -21 16 -21 9 0 14 7 12 17 -5 25 -28 28 -28 4z"/>
<path d="M1846 5522 c-3 -6 1 -15 8 -21 8 -7 17 -8 20 -3 3 6 -1 15 -8 21 -8
7 -17 8 -20 3z"/>
<path d="M1791 5467 c1 -24 -2 -50 -6 -57 -4 -7 -10 -49 -12 -94 -5 -100 -21
-216 -32 -230 -5 -6 -11 -29 -13 -52 -11 -84 -137 -390 -180 -438 -10 -11 -18
-24 -18 -29 0 -4 -7 -15 -15 -23 -8 -9 -15 -24 -15 -35 0 -12 -7 -19 -19 -19
-14 0 -21 -9 -26 -31 -4 -17 -4 -33 -1 -36 7 -7 38 -7 154 0 l92 5 0 -24 c0
-13 -4 -24 -9 -24 -19 0 -22 -35 -5 -47 16 -12 17 -13 1 -13 -12 0 -17 -8 -16
-27 1 -18 3 -21 6 -10 2 9 9 15 14 12 15 -10 12 -215 -3 -215 -9 0 -8 -4 2
-10 10 -6 11 -10 3 -10 -7 0 -13 -5 -13 -11 0 -5 5 -7 10 -4 5 3 10 1 10 -4 0
-6 -4 -11 -10 -11 -5 0 -8 -17 -7 -37 l2 -38 -80 3 c-74 3 -119 -8 -103 -24 4
-3 46 -7 93 -8 61 -1 85 -5 85 -13 0 -10 -32 -13 -122 -14 -68 -1 -129 0 -137
1 -8 1 -18 -4 -22 -12 -6 -9 -9 -10 -9 -1 0 9 -10 11 -30 7 -21 -5 -30 -3 -30
6 0 10 -3 10 -16 0 -10 -9 -64 -14 -172 -17 -86 -2 -173 -6 -192 -9 -31 -5
-32 -7 -15 -17 19 -10 19 -10 0 -18 -17 -6 -16 -8 10 -14 34 -8 40 -10 75 -30
19 -11 21 -15 8 -15 -10 0 -18 -3 -18 -7 0 -5 24 -9 52 -11 29 -2 60 -9 68
-16 15 -13 94 -13 250 2 41 4 126 6 188 4 l112 -3 1 -32 2 -32 7 35 c5 25 8 5
11 -75 7 -185 2 -248 -18 -263 -10 -7 -27 -20 -39 -30 -11 -9 -27 -21 -36 -27
-61 -40 -88 -63 -104 -87 -11 -15 -27 -28 -36 -28 -13 0 -18 -8 -18 -29 0 -17
-5 -33 -11 -36 -36 -23 -105 -244 -92 -295 3 -10 -4 -27 -17 -40 -17 -17 -21
-29 -15 -53 3 -18 10 -59 14 -92 10 -72 30 -217 37 -262 3 -18 9 -33 14 -33
13 0 13 22 0 55 -7 17 -7 32 0 43 8 14 9 13 10 -9 0 -15 9 -38 20 -52 11 -14
20 -31 20 -37 0 -7 9 -21 20 -30 13 -12 17 -21 10 -25 -12 -7 11 -35 29 -35 6
0 11 -6 11 -14 0 -7 8 -16 18 -19 9 -4 36 -18 60 -32 23 -14 52 -25 63 -25 29
0 14 17 -22 25 -23 5 -28 10 -18 16 7 4 11 9 9 11 -3 2 -14 8 -24 14 -11 6
-24 19 -30 30 -6 10 -19 25 -28 32 -10 7 -18 19 -18 25 0 7 -8 29 -18 49 -43
84 -56 409 -18 430 9 5 16 14 16 19 0 18 41 103 66 136 13 17 24 35 24 39 0
10 83 112 97 118 7 3 10 -3 7 -17 -2 -12 -4 -141 -4 -286 -1 -252 0 -265 20
-283 16 -15 20 -16 20 -3 0 8 -4 15 -10 15 -11 0 -1 62 12 71 5 3 8 14 7 25
-5 53 2 117 11 108 6 -6 13 -92 16 -195 4 -108 11 -190 17 -198 8 -9 12 -178
13 -542 0 -291 3 -532 6 -535 3 -3 15 5 27 17 12 13 22 19 22 13 5 -27 20 118
24 230 5 99 3 131 -7 138 -10 6 -10 8 -1 8 7 0 13 10 14 23 0 12 1 59 2 104 0
46 4 83 8 83 4 0 8 64 9 143 2 165 2 153 -6 195 -4 20 -2 38 6 47 7 8 9 15 4
15 -5 0 -7 48 -6 107 4 124 4 154 0 353 -2 80 -7 151 -12 159 -5 8 -4 16 4 21
8 5 9 10 1 14 -8 5 -7 12 1 25 7 11 8 29 3 47 -9 30 -9 38 -4 145 l3 66 60 11
c69 13 163 3 177 -19 5 -8 8 -62 6 -121 -1 -60 0 -108 4 -108 11 0 18 -188 23
-655 5 -498 5 -481 7 -520 2 -44 1 -53 -5 -122 -2 -35 0 -65 5 -68 12 -8 12
-65 -1 -65 -12 0 -6 -213 7 -232 9 -15 9 -8 17 -221 3 -93 8 -172 10 -176 3
-4 0 -27 -6 -50 -9 -34 -8 -45 2 -51 12 -8 11 -32 -5 -90 -4 -16 -3 -20 2 -12
6 8 9 -15 7 -60 -2 -80 3 -118 17 -118 5 0 9 12 10 28 l0 27 10 -25 c6 -14 8
-40 5 -58 -3 -22 -1 -32 9 -32 10 0 12 19 8 88 -3 56 -1 82 5 73 12 -17 21 38
11 65 -4 11 -8 39 -8 64 l0 45 14 -30 c7 -16 14 -28 15 -25 2 3 4 52 5 110 2
58 7 119 10 135 4 17 7 43 6 59 0 16 2 26 6 22 10 -10 52 66 53 95 0 14 3 29
7 33 9 9 32 74 39 111 3 16 10 35 16 42 7 9 7 22 -1 44 -9 26 -7 38 16 82 15
29 26 58 25 65 -2 7 4 15 13 19 12 4 13 8 4 13 -8 6 -6 13 10 26 11 10 21 26
21 36 0 9 5 20 10 23 17 11 11 27 -8 21 -10 -4 -64 -8 -121 -11 l-102 -5 7 87
c8 102 9 113 6 211 -2 56 -5 72 -17 72 -18 0 -20 17 -2 23 9 3 12 59 10 245
-1 140 2 244 7 247 5 3 7 29 3 58 -5 50 -7 172 -4 401 l1 109 25 -23 c14 -13
25 -34 25 -46 0 -35 11 -54 31 -54 40 0 68 -24 95 -79 15 -31 28 -58 29 -61 0
-3 5 -12 10 -20 15 -23 8 -296 -10 -379 -15 -72 -52 -171 -64 -171 -3 0 -12
-14 -19 -30 -8 -17 -27 -44 -44 -60 -43 -43 -21 -37 26 8 l39 37 -21 -37 c-24
-43 -11 -52 15 -11 26 40 68 83 82 83 6 0 11 8 11 18 0 10 9 28 20 40 11 12
20 26 20 32 0 6 4 18 9 28 42 79 53 116 67 221 9 64 13 138 10 165 -4 41 -3
49 13 53 16 4 17 10 10 47 -9 50 -59 175 -76 194 -7 7 -13 17 -13 21 0 5 -14
25 -30 46 -23 29 -28 41 -19 51 9 11 8 14 -3 14 -8 0 -23 9 -33 20 -10 11 -23
20 -29 20 -6 0 -17 9 -24 20 -7 11 -18 20 -25 20 -6 0 -25 11 -42 25 -23 18
-26 24 -13 25 33 0 8 30 -26 30 -57 0 -58 2 -52 171 2 85 5 161 6 170 1 13 16
18 68 21 37 3 69 1 70 -4 5 -12 30 -10 35 5 3 9 9 9 28 -2 16 -9 24 -10 27 -3
2 7 15 9 33 5 20 -4 29 -2 29 8 0 10 3 10 12 1 14 -14 48 -16 48 -3 0 5 18 8
40 7 l40 -1 -5 -67 c-3 -41 -1 -70 6 -73 19 -12 53 4 97 44 23 22 42 38 42 36
0 -3 17 5 38 17 81 45 373 118 476 118 27 0 48 6 56 15 9 10 9 15 1 15 -6 0
-11 -6 -11 -12 0 -10 -3 -9 -9 1 -6 9 -44 16 -122 21 -63 5 -133 12 -156 18
-24 5 -43 5 -43 1 0 -5 -5 -9 -11 -9 -5 0 -8 4 -4 9 8 13 -30 24 -84 23 -34 0
-41 2 -26 8 21 9 22 9 -55 15 -8 0 -20 3 -25 7 -16 10 -108 60 -135 75 -34 18
-54 17 -46 -3 4 -11 -1 -10 -21 6 l-27 21 -8 -22 c-5 -12 -7 -22 -6 -23 29
-11 78 -41 71 -43 -5 -2 -8 -16 -5 -31 l4 -27 -74 -1 c-104 0 -158 -6 -158
-16 0 -5 -8 -4 -19 1 -19 11 -61 14 -125 9 -25 -2 -41 2 -43 10 -4 9 21 12 99
13 189 2 199 27 13 31 l-110 3 -2 75 c-3 111 -11 142 -36 134 -13 -4 -17 -2
-13 5 4 6 3 11 -2 11 -16 0 -24 110 -13 168 9 47 8 55 -9 72 -18 18 -20 18
-29 2 -9 -15 -10 -14 -11 6 0 12 -4 22 -10 22 -5 0 -10 7 -10 15 0 8 -9 20
-20 27 -21 13 -27 38 -10 38 6 0 10 33 9 83 -1 59 -4 74 -9 52 -6 -22 -8 -10
-9 47 0 42 4 80 9 83 14 9 12 47 -4 71 -16 22 -19 40 -17 107 1 34 4 46 13 41
8 -5 9 -2 5 10 -4 10 -7 24 -7 33 0 8 -5 13 -11 11 -6 -2 -10 -7 -9 -12 1 -5
-3 -12 -8 -15 -7 -4 -7 -22 0 -55 6 -29 7 -51 1 -55 -18 -12 -20 -157 -11
-703 l5 -278 -121 0 -121 0 0 258 c0 141 -3 277 -6 302 -4 25 -3 55 2 67 8 21
9 43 6 148 -1 28 3 59 8 69 7 16 5 18 -8 13 -20 -7 -20 -6 -7 28 15 39 22 198
11 228 -6 16 -7 28 -1 32 13 8 1 346 -13 363 -19 24 -24 11 -33 -70 l-9 -83
-3 93 c-1 51 -7 92 -12 92 -6 0 -9 -20 -9 -43z m329 -1537 c0 -6 -46 -11 -115
-11 -63 -1 -120 -2 -127 -3 -6 -1 -13 5 -15 12 -4 9 26 12 126 12 81 0 131 -4
131 -10z m-910 -164 c0 -2 -11 -6 -25 -8 -14 -3 -25 -1 -25 3 0 5 11 9 25 9
14 0 25 -2 25 -4z m840 -5 c0 11 2 11 10 -1 5 -8 10 -10 10 -3 0 8 6 8 24 0
23 -11 24 -17 30 -142 4 -71 9 -138 12 -147 5 -17 -6 -18 -128 -18 l-133 0 0
153 0 152 68 1 c37 1 71 4 74 8 3 3 12 1 20 -5 10 -9 13 -8 13 2z m177 -3123
c-3 -7 -5 -2 -5 12 0 14 2 19 5 13 2 -7 2 -19 0 -25z"/>
<path d="M1723 5135 c0 -27 2 -38 4 -22 2 15 2 37 0 50 -2 12 -4 0 -4 -28z"/>
<path d="M2152 4780 c0 -19 2 -27 5 -17 2 9 2 25 0 35 -3 9 -5 1 -5 -18z"/>
<path d="M2290 4379 c0 -5 5 -7 10 -4 6 3 10 8 10 11 0 2 -4 4 -10 4 -5 0 -10
-5 -10 -11z"/>
<path d="M2276 4275 c-3 -9 0 -15 9 -15 8 0 15 7 15 15 0 8 -4 15 -9 15 -5 0
-11 -7 -15 -15z"/>
<path d="M2645 4070 c3 -5 8 -10 11 -10 2 0 4 5 4 10 0 6 -5 10 -11 10 -5 0
-7 -4 -4 -10z"/>
<path d="M1683 3630 c0 -25 2 -35 4 -22 2 12 2 32 0 45 -2 12 -4 2 -4 -23z"/>
<path d="M1700 2474 c0 -8 5 -12 10 -9 6 3 10 10 10 16 0 5 -4 9 -10 9 -5 0
-10 -7 -10 -16z"/>
<path d="M2355 2154 c-33 -29 -35 -32 -10 -17 36 21 59 42 53 48 -2 2 -22 -12
-43 -31z"/>
<path d="M2628 1890 c18 -17 25 -19 42 -8 31 20 24 28 -22 28 l-42 0 22 -20z"/>
<path d="M2545 1786 c20 -14 35 -12 35 5 0 5 -12 9 -27 9 -26 0 -26 -1 -8 -14z"/>
<path d="M2485 1555 c-5 -11 -10 -24 -13 -30 -3 -5 3 -3 13 7 9 9 15 22 12 30
-3 9 -7 7 -12 -7z"/>
<path d="M2435 1479 c-7 -10 5 -39 16 -39 5 0 9 4 9 9 0 5 2 16 5 24 6 14 -22
20 -30 6z"/>
<path d="M1810 1206 c0 -30 14 -40 46 -32 17 5 24 13 24 31 0 22 -4 25 -35 25
-30 0 -35 -3 -35 -24z"/>
<path d="M1850 1144 c0 -8 5 -12 10 -9 6 4 8 11 5 16 -9 14 -15 11 -15 -7z"/>
<path d="M1803 1132 c-18 -12 -5 -152 14 -152 8 0 17 8 19 18 3 9 18 25 34 34
27 16 29 19 18 48 -9 26 -15 31 -35 27 -17 -3 -27 1 -31 14 -4 11 -12 15 -19
11z"/>
<path d="M1813 872 c-10 -6 -6 -17 13 -43 l26 -34 -6 34 c-3 18 -6 37 -6 42 0
11 -11 11 -27 1z"/>
<path d="M2281 754 c0 -11 3 -14 6 -6 3 7 2 16 -1 19 -3 4 -6 -2 -5 -13z"/>
</g>
</svg>
